<?xml version="1.0" encoding="utf-8"?>
<!-- Generator: Adobe Illustrator 16.0.2, SVG Export Plug-In . SVG Version: 6.00 Build 0)  -->
<!DOCTYPE svg PUBLIC "-//W3C//DTD SVG 1.1//EN" "http://www.w3.org/Graphics/SVG/1.1/DTD/svg11.dtd">
<svg version="1.1" id="Layer_1" xmlns="http://www.w3.org/2000/svg" xmlns:xlink="http://www.w3.org/1999/xlink" x="0px" y="0px"
	 width="152.585px" height="17.79px" viewBox="0 0 152.585 17.79" enable-background="new 0 0 152.585 17.79" xml:space="preserve">
<g>
	<path fill="#FFFFFF" d="M0.002,0.511c1.41-0.229,3.248-0.358,5.189-0.358c3.224,0,5.314,0.588,6.952,1.84
		c1.763,1.329,2.871,3.45,2.871,6.492c0,3.297-1.184,5.572-2.821,6.979c-1.788,1.509-4.509,2.225-7.833,2.225
		c-1.99,0-3.4-0.128-4.357-0.256L0.002,0.511L0.002,0.511z M3.854,14.569c0.327,0.076,0.857,0.076,1.334,0.076
		c3.477,0.025,5.744-1.917,5.744-6.032c0.025-3.578-2.04-5.47-5.34-5.47c-0.855,0-1.409,0.077-1.738,0.154V14.569z"/>
	<path fill="#FFFFFF" d="M54.33,17.022c-0.706,0.357-2.292,0.741-4.357,0.741c-5.869,0-8.891-3.706-8.891-8.613
		c0-5.878,4.131-9.15,9.268-9.15c1.991,0,3.501,0.409,4.181,0.767l-0.78,3.093c-0.782-0.333-1.864-0.639-3.223-0.639
		c-3.048,0-5.416,1.866-5.416,5.7c0,3.451,2.015,5.625,5.44,5.625c1.159,0,2.443-0.256,3.2-0.563L54.33,17.022z"/>
	<path fill="#FFFFFF" d="M77.171,8.715c0,5.648-3.373,9.075-8.333,9.075c-5.037,0-7.985-3.859-7.985-8.768
		C60.854,3.859,64.103,0,69.115,0C74.326,0,77.171,3.961,77.171,8.715z M64.909,8.946c0,3.374,1.562,5.752,4.131,5.752
		c2.595,0,4.08-2.506,4.08-5.855c0-3.092-1.46-5.75-4.105-5.75C66.42,3.093,64.909,5.597,64.909,8.946z"/>
	<path fill="#FFFFFF" d="M85.501,2.642c0.894-0.179,2.702-0.313,4.397-0.313c2.076,0,3.349,0.201,4.441,0.85
		c1.049,0.559,1.809,1.587,1.809,2.951c0,1.341-0.781,2.593-2.479,3.219v0.045c1.721,0.469,2.993,1.767,2.993,3.711
		c0,1.362-0.626,2.437-1.563,3.196c-1.093,0.871-2.923,1.363-5.914,1.363c-1.675,0-2.926-0.111-3.686-0.225L85.501,2.642
		L85.501,2.642z M88.872,8.409h1.115c1.787,0,2.748-0.738,2.748-1.855c0-1.14-0.871-1.744-2.412-1.744
		c-0.736,0-1.16,0.045-1.45,0.09L88.872,8.409L88.872,8.409z M88.872,15.092c0.335,0.046,0.736,0.046,1.316,0.046
		c1.541,0,2.902-0.581,2.902-2.169c0-1.52-1.361-2.123-3.059-2.123h-1.161L88.872,15.092L88.872,15.092z"/>
	<path fill="#FFFFFF" d="M103.807,2.44h3.413v12.206h5.983v2.862h-9.397L103.807,2.44L103.807,2.44z"/>
	<path fill="#FFFFFF" d="M132.96,9.818c0,4.94-2.991,7.937-7.39,7.937c-4.465,0-7.078-3.375-7.078-7.668
		c0-4.516,2.881-7.891,7.324-7.891C130.436,2.195,132.96,5.66,132.96,9.818z M122.088,10.019c0,2.95,1.384,5.03,3.661,5.03
		c2.3,0,3.616-2.191,3.616-5.12c0-2.705-1.295-5.029-3.641-5.029C123.427,4.9,122.088,7.09,122.088,10.019z"/>
	<path fill="#FFFFFF" d="M152.582,16.815c-1.05,0.357-3.037,0.85-5.024,0.85c-2.744,0-4.73-0.691-6.115-2.033
		c-1.385-1.297-2.144-3.264-2.121-5.479c0.022-5.007,3.662-7.869,8.597-7.869c1.94,0,3.438,0.38,4.175,0.738l-0.714,2.727
		c-0.826-0.357-1.854-0.648-3.504-0.648c-2.837,0-4.979,1.61-4.979,4.874c0,3.107,1.942,4.939,4.732,4.939
		c0.781,0,1.406-0.088,1.676-0.225v-3.15h-2.322V8.879h5.604v7.936H152.582z"/>
</g>
<path fill="#FFFFFF" d="M37.165,3.424H21.127V0.283h16.038V3.424z M34.633,6.731H21.127v3.143h13.504L34.633,6.731L34.633,6.731z
	 M37.165,14.071H21.127v3.143h16.038V14.071z"/>
</svg>
