<?xml version="1.0" encoding="utf-8"?>
<!-- Generator: Adobe Illustrator 16.0.2, SVG Export Plug-In . SVG Version: 6.00 Build 0)  -->
<!DOCTYPE svg PUBLIC "-//W3C//DTD SVG 1.1//EN" "http://www.w3.org/Graphics/SVG/1.1/DTD/svg11.dtd">
<svg version="1.1" id="Capa_1" xmlns="http://www.w3.org/2000/svg" xmlns:xlink="http://www.w3.org/1999/xlink" x="0px" y="0px"
	 width="26.887px" height="23.25px" viewBox="301.816 370.298 26.887 23.25" enable-background="new 301.816 370.298 26.887 23.25"
	 xml:space="preserve">
<path fill="#FFFFFF" d="M324.766,389.403c-0.85,0-1.7,0.048-2.604,0.167c1.836-2.056,2.904-4.674,2.904-7.647
	c0-6.42-5.205-11.625-11.625-11.625s-11.625,5.205-11.625,11.625s5.205,11.625,11.625,11.625c0.076,0,0.15-0.01,0.226-0.011
	c0,0,1.525,0.036,4.115-0.673c1.771-0.517,3.471-1.168,5.046-1.168c2.938,0,3.813,0.813,4.313,1.125
	c-0.021-0.042,1.563-1.688,1.563-1.688S327.203,389.403,324.766,389.403z M317.632,378.7c1.218-0.397,2.528,0.271,2.924,1.491
	c0.397,1.219-0.27,2.528-1.489,2.924c-1.219,0.396-2.529-0.271-2.925-1.49C315.744,380.407,316.412,379.097,317.632,378.7z
	 M317.69,388.507c-1.037,0.754-2.488,0.524-3.241-0.514c-0.754-1.037-0.524-2.488,0.513-3.242c1.036-0.754,2.488-0.523,3.242,0.514
	C318.957,386.302,318.727,387.754,317.69,388.507z M313.532,374.894c1.282,0,2.32,1.039,2.32,2.321s-1.038,2.321-2.32,2.321
	s-2.321-1.04-2.321-2.321S312.25,374.894,313.532,374.894z M306.324,379.938c0.396-1.22,1.705-1.886,2.924-1.49
	c1.22,0.396,1.888,1.705,1.491,2.924c-0.396,1.219-1.706,1.886-2.925,1.49S305.928,381.157,306.324,379.938z M312.136,387.838
	c-0.753,1.037-2.205,1.267-3.242,0.513s-1.268-2.205-0.513-3.241c0.753-1.037,2.204-1.268,3.241-0.514
	C312.659,385.348,312.889,386.801,312.136,387.838z M312.25,381.922c0-0.657,0.533-1.19,1.191-1.19c0.657,0,1.189,0.533,1.189,1.19
	c0,0.658-0.532,1.19-1.189,1.19C312.783,383.113,312.25,382.58,312.25,381.922z"/>
</svg>
