<?xml version="1.0" encoding="utf-8"?>
<!-- Generator: Adobe Illustrator 16.0.2, SVG Export Plug-In . SVG Version: 6.00 Build 0)  -->
<!DOCTYPE svg PUBLIC "-//W3C//DTD SVG 1.1//EN" "http://www.w3.org/Graphics/SVG/1.1/DTD/svg11.dtd">
<svg version="1.1" id="Layer_1" xmlns="http://www.w3.org/2000/svg" xmlns:xlink="http://www.w3.org/1999/xlink" x="0px" y="0px"
	 width="17.008px" height="12.547px" viewBox="0 0 17.008 12.547" enable-background="new 0 0 17.008 12.547" xml:space="preserve">
<path fill="#2E2E2E" d="M7.087,1.568c-0.749,0-1.471,0.098-2.148,0.29C4.306,2.039,3.743,2.293,3.264,2.613
	C2.379,3.208,1.889,3.97,1.889,4.759c0,0.441,0.149,0.87,0.442,1.272c0.305,0.421,0.766,0.807,1.332,1.115
	c0.451,0.244,0.752,0.637,0.832,1.076C4.51,8.297,4.519,8.371,4.528,8.445c0.04-0.031,0.08-0.063,0.12-0.098
	c0.356-0.293,0.838-0.455,1.334-0.455c0.079,0,0.158,0.002,0.238,0.012c0.286,0.029,0.577,0.047,0.867,0.047
	c0.749,0,1.47-0.1,2.147-0.291c0.632-0.182,1.197-0.436,1.676-0.754c0.886-0.597,1.374-1.359,1.374-2.148s-0.489-1.551-1.374-2.146
	C10.431,2.29,9.866,2.036,9.234,1.857C8.556,1.665,7.835,1.568,7.087,1.568L7.087,1.568z M7.087,0L7.087,0
	c3.915,0,7.086,2.13,7.086,4.759c0,2.629-3.173,4.76-7.086,4.76c-0.376,0-0.745-0.02-1.105-0.059
	c-1.522,1.258-3.28,1.484-5.037,1.518V10.67c0.949-0.383,1.713-1.084,1.713-1.883c0-0.111-0.011-0.223-0.031-0.33
	C1.025,7.584,0,6.252,0,4.758C0.001,2.129,3.174-0.001,7.087,0L7.087,0z M14.705,10.668c0,0.686,0.536,1.285,1.36,1.615v0.264
	c-1.522-0.029-2.919-0.223-4.24-1.301c-0.312,0.033-0.632,0.051-0.957,0.051c-1.408,0-2.708-0.316-3.744-0.846
	c2.137-0.006,4.153-0.574,5.679-1.602c0.773-0.518,1.381-1.125,1.81-1.805c0.454-0.723,0.684-1.491,0.684-2.286
	c0-0.127-0.006-0.255-0.019-0.382c1.07,0.734,1.729,1.735,1.729,2.839c0,1.279-0.888,2.422-2.276,3.17
	C14.714,10.477,14.705,10.572,14.705,10.668z"/>
</svg>
